<?xml version="1.0" encoding="utf-8"?>
<!-- Generator: Adobe Illustrator 27.5.0, SVG Export Plug-In . SVG Version: 6.00 Build 0)  -->
<svg version="1.1" xmlns="http://www.w3.org/2000/svg" xmlns:xlink="http://www.w3.org/1999/xlink" x="0px" y="0px"
	 viewBox="0 0 500 500" style="enable-background:new 0 0 500 500;" xml:space="preserve">
<g id="Floor">
	<ellipse style="fill:#F5F5F5;" cx="250" cy="354.5" rx="218.952" ry="126.412"/>
</g>
<g id="Shadows">
	<ellipse style="fill:#E0E0E0;" cx="389.362" cy="389.989" rx="52.85" ry="30.513"/>
	<path style="fill:#E0E0E0;" d="M337.937,372.951L211.16,446.159c-3.567,2.059-9.797,1.801-13.915-0.577L62.923,367.911
		c-4.118-2.378-4.566-5.975-0.999-8.034l126.777-73.208c3.567-2.059,9.797-1.801,13.915,0.577l134.322,77.671
		C341.057,367.295,341.504,370.892,337.937,372.951z"/>
</g>
<g id="Clouds">
	<path style="fill:#E6E6E6;" d="M376.584,77.745l6.661,3.789v-2.357c-0.011-0.168-0.021-0.336-0.021-0.501
		c0-0.165,0.011-0.32,0.021-0.476v-0.056l0.003,0.001c0.24-3.125,2.605-4.322,5.493-2.655c1.23,0.71,2.362,1.834,3.28,3.15
		c0.651-4.244,4.113-5.775,8.297-3.359c4.649,2.684,8.417,9.211,8.417,14.578l0.004,5.05c0.001,0.813,0.432,1.566,1.133,1.977
		l3.918,2.299c1.729,1.014,2.791,2.869,2.791,4.873c0,1.791-1.939,2.91-3.49,2.014l-36.406-21.031
		c-1.967-1.137-3.18-3.236-3.18-5.508C373.505,77.955,375.21,76.964,376.584,77.745z"/>
	<path style="fill:#E6E6E6;" d="M350.882,44.187l4.619,2.628V45.18c-0.007-0.117-0.015-0.233-0.015-0.347
		c0-0.114,0.007-0.222,0.015-0.33v-0.038l0.002,0.001c0.166-2.167,1.807-2.997,3.809-1.841c0.853,0.493,1.638,1.272,2.274,2.184
		c0.452-2.943,2.852-4.005,5.754-2.329c3.224,1.861,5.837,6.388,5.837,10.11l0.003,3.502c0,0.564,0.299,1.086,0.786,1.371
		l2.717,1.594c1.199,0.703,1.935,1.989,1.935,3.379c0,1.242-1.345,2.018-2.421,1.397l-25.248-14.585
		c-1.364-0.788-2.205-2.244-2.205-3.82C348.746,44.333,349.929,43.645,350.882,44.187z"/>
</g>
<g id="Plants">
	<g>
		<path style="fill:#BA68C8;" d="M64.807,337.969l-14.978,8.809c0,0-6.858-1.01-6.339-7.466c0.519-6.456,3.305-7.977-0.164-10.814
			c-3.47-2.836-4.365-3.025-4.199-5.805c0.166-2.78,2.037-3.993,2.917-5.095c0.88-1.102,3.333-3.413,1.607-6.766
			c-1.726-3.353-4.065-6.592-0.592-8.129c2.073-0.918,5.559,0.232,7.871,2.685c2.311,2.453,4.217,4.217,6.407,4.786
			c2.19,0.57,6.754,0.615,6.601,4.387c-0.154,3.772-1.133,5.075-0.218,6.75C65.441,324.467,72.804,326.166,64.807,337.969z"/>
		<path style="opacity:0.2;" d="M64.807,337.969l-14.978,8.809c0,0-6.858-1.01-6.339-7.466c0.519-6.456,3.305-7.977-0.164-10.814
			c-3.47-2.836-4.365-3.025-4.199-5.805c0.166-2.78,2.037-3.993,2.917-5.095c0.88-1.102,3.333-3.413,1.607-6.766
			c-1.726-3.353-4.065-6.592-0.592-8.129c2.073-0.918,5.559,0.232,7.871,2.685c2.311,2.453,4.217,4.217,6.407,4.786
			c2.19,0.57,6.754,0.615,6.601,4.387c-0.154,3.772-1.133,5.075-0.218,6.75C65.441,324.467,72.804,326.166,64.807,337.969z"/>
		<path style="fill:#FFFFFF;" d="M58.707,341.915c-0.01,0-0.02-0.001-0.029-0.002c-0.197-0.016-0.344-0.188-0.327-0.386
			c0.018-0.22,1.614-22.194-13.631-36.603c-0.144-0.136-0.149-0.362-0.014-0.506c0.136-0.143,0.362-0.149,0.506-0.014
			c15.499,14.648,13.87,36.957,13.852,37.181C59.049,341.772,58.892,341.915,58.707,341.915z"/>
		<path style="fill:#FFFFFF;" d="M56.022,322.775c-0.009,0-0.018-0.001-0.026-0.001c-0.197-0.015-0.346-0.187-0.331-0.384
			c0.462-6.23,4.69-9.341,4.87-9.471c0.159-0.112,0.382-0.08,0.499,0.082c0.115,0.16,0.079,0.384-0.081,0.499
			c-0.041,0.03-4.138,3.057-4.573,8.942C56.365,322.632,56.209,322.775,56.022,322.775z"/>
		<path style="fill:#FFFFFF;" d="M57.128,326.586c-0.098,0-0.195-0.04-0.266-0.117c-0.037-0.041-3.823-4.097-12.423-2.916
			c-0.2,0.026-0.376-0.11-0.403-0.306c-0.027-0.196,0.11-0.377,0.306-0.403c9.009-1.235,12.892,2.967,13.053,3.145
			c0.132,0.146,0.119,0.372-0.027,0.505C57.299,326.556,57.213,326.586,57.128,326.586z"/>
	</g>
	<g>
		<path style="fill:#BA68C8;" d="M71.839,333.854l-9.066,5.267c0,0,4.575-14.604,2.036-29.295c-0.958-5.545-2.975-8.3-3.688-9.78
			c-0.712-1.48-6.178-10.643-1.366-14.868c4.812-4.224,16.103,4.178,15.597,26.805C75.092,323.596,71.839,333.854,71.839,333.854z"
			/>
		<path style="opacity:0.5;" d="M71.839,333.854l-9.066,5.267c0,0,4.575-14.604,2.036-29.295c-0.958-5.545-2.975-8.3-3.688-9.78
			c-0.712-1.48-6.178-10.643-1.366-14.868c4.812-4.224,16.103,4.178,15.597,26.805C75.092,323.596,71.839,333.854,71.839,333.854z"
			/>
		<path style="fill:#FFFFFF;" d="M67.624,336.661c-0.041,0-0.083-0.008-0.123-0.022c-0.186-0.068-0.281-0.273-0.213-0.459
			c0.034-0.094,3.413-9.493,3.235-24.61c-0.177-15.03-8.028-23.017-8.107-23.096c-0.141-0.14-0.142-0.366-0.002-0.506
			c0.14-0.141,0.366-0.141,0.506-0.002c0.082,0.081,8.139,8.256,8.32,23.596c0.179,15.259-3.245,24.771-3.28,24.864
			C67.907,336.571,67.77,336.661,67.624,336.661z"/>
	</g>
</g>
<g id="Device">
	<g>
		<path style="fill:#37474F;" d="M228.635,37.684c0.001,0.002,0.002,0.004,0.002,0.005c-0.632-2.728-2.333-5.128-4.796-6.595
			l-0.415-0.247c-2.901-1.728-6.215-2.64-9.591-2.64v0.002c-1.025-0.014-2.08,0.238-3.074,0.811L94.181,96.327
			c-3.749,2.164-6.537,5.545-8.004,9.478c-0.023,0.061-0.047,0.122-0.069,0.184c-0.216,0.598-0.4,1.209-0.553,1.831
			c-0.022,0.088-0.042,0.176-0.062,0.265c-0.143,0.618-0.258,1.243-0.336,1.878c-0.01,0.08-0.015,0.161-0.024,0.241
			c-0.072,0.66-0.118,1.327-0.118,2v251.588v0.525v0v2.105c0,2.035,1.071,3.92,2.82,4.962l4.648,2.768
			c1.61,0.959,3.45,1.465,5.324,1.465h2.295v-0.002c1.025,0.014,2.081-0.237,3.074-0.811l116.579-67.307
			c5.673-3.275,9.167-9.327,9.167-15.877V40.033c0,0,0-0.001,0-0.001v-0.524C228.921,38.861,228.815,38.253,228.635,37.684z
			 M227.348,35.466c-0.027-0.029-0.052-0.06-0.08-0.088C227.296,35.407,227.321,35.437,227.348,35.466z M226.891,35.019
			c-0.046-0.04-0.092-0.08-0.139-0.119C226.799,34.939,226.845,34.979,226.891,35.019z M226.366,34.604
			c-0.059-0.042-0.121-0.081-0.182-0.12C226.245,34.524,226.307,34.563,226.366,34.604z M225.789,34.243
			c-0.072-0.039-0.146-0.073-0.219-0.109C225.643,34.171,225.717,34.204,225.789,34.243z M225.167,33.945
			c-0.086-0.035-0.176-0.061-0.263-0.092C224.991,33.884,225.081,33.91,225.167,33.945z M224.255,33.662
			c-0.134-0.031-0.267-0.065-0.403-0.087C223.988,33.597,224.121,33.63,224.255,33.662z M223.544,33.54
			c-0.138-0.015-0.276-0.029-0.416-0.035C223.268,33.511,223.406,33.525,223.544,33.54z M222.82,33.506
			c-0.143,0.002-0.286,0.008-0.429,0.021C222.535,33.514,222.678,33.507,222.82,33.506z M220.629,33.959
			c-0.24,0.1-0.479,0.214-0.713,0.35C220.151,34.173,220.389,34.059,220.629,33.959z M222.089,33.561
			c-0.149,0.021-0.299,0.05-0.448,0.083C221.79,33.611,221.939,33.582,222.089,33.561z M221.356,33.711
			c-0.164,0.045-0.326,0.101-0.488,0.161C221.031,33.812,221.193,33.756,221.356,33.711z M99.062,375.5
			c-0.074-0.014-0.146-0.03-0.219-0.047C98.916,375.47,98.989,375.486,99.062,375.5z M96.962,374.666
			c-0.066-0.042-0.131-0.085-0.195-0.129C96.831,374.581,96.896,374.624,96.962,374.666z M94.284,370.725
			c0.016,0.089,0.035,0.178,0.055,0.265C94.319,370.903,94.301,370.815,94.284,370.725z M94.66,372.004
			c0.001,0.003,0.003,0.006,0.005,0.009C94.663,372.009,94.661,372.007,94.66,372.004z M95.167,372.914
			c0.046,0.069,0.093,0.138,0.142,0.205C95.26,373.051,95.213,372.983,95.167,372.914z M95.971,373.897
			c0.001,0.001,0.003,0.002,0.004,0.003C95.974,373.9,95.973,373.899,95.971,373.897z"/>
		<g>
			<g>
				<polygon style="fill:#37484F;" points="228.921,40.033 228.921,40.033 228.921,40.032 				"/>
				<path style="fill:#37484F;" d="M94.17,117.493c0-6.55,3.494-12.602,9.167-15.877l116.579-67.307
					c3.444-1.989,7.621-0.122,8.721,3.381c-0.632-2.728-2.333-5.128-4.796-6.595l-0.415-0.247c-2.901-1.728-6.215-2.64-9.591-2.64
					v0.002c-1.025-0.014-2.08,0.238-3.074,0.811L94.181,96.327c-5.672,3.275-9.167,9.327-9.167,15.877v252.114
					c0,4.621,5.003,7.51,9.005,5.199l0.151-0.087V117.493z"/>
			</g>
			<path style="fill:#455A64;" d="M219.755,307.498l-116.579,67.307c-4.002,2.31-9.005-0.578-9.005-5.199V117.493
				c0-6.55,3.494-12.602,9.167-15.877l116.579-67.307c4.002-2.311,9.005,0.578,9.005,5.199v252.114
				C228.921,298.171,225.427,304.223,219.755,307.498z"/>
			<path style="fill:#253239;" d="M94.17,369.607V117.493c0-2.796,0.641-5.498,1.812-7.935l-9.014-5.582
				c-1.262,2.512-1.955,5.321-1.955,8.229v251.588v0.525v2.105c0,2.035,1.071,3.92,2.82,4.962l4.648,2.768
				c1.61,0.959,3.45,1.465,5.324,1.465h2.295v-0.002C96.997,375.573,94.17,373.081,94.17,369.607z"/>
			<g>
				<path style="fill:#37484F;" d="M215.742,58.542v211.904c0,5.784-3.086,11.129-8.095,14.021l-102.946,59.436
					c-0.826,0.477-1.699,0.694-2.553,0.708c1.194,2.764,4.649,4.138,7.522,2.48l102.946-59.436
					c5.009-2.892,8.095-8.237,8.095-14.021V63.829C220.711,60.863,218.375,58.715,215.742,58.542z"/>
				<g>
					<path style="fill:#BA68C8;" d="M102.148,344.611c0.854-0.015,1.728-0.232,2.553-0.708l102.946-59.436
						c5.009-2.892,8.095-8.237,8.095-14.021V58.542c0.484,0.032-1.545-0.134-2.983,0.696l-102.946,59.436
						c-5.009,2.892-8.095,8.236-8.095,14.02v209.805c0,0.776,0.161,1.495,0.444,2.139
						C102.158,344.629,102.153,344.62,102.148,344.611z"/>
				</g>
				<g style="opacity:0.5;">
					<path style="fill:#FFFFFF;" d="M102.148,344.611c0.854-0.015,1.728-0.232,2.553-0.708l102.946-59.436
						c5.009-2.892,8.095-8.237,8.095-14.021V58.542c0.484,0.032-1.545-0.134-2.983,0.696l-102.946,59.436
						c-5.009,2.892-8.095,8.236-8.095,14.02v209.805c0,0.776,0.161,1.495,0.444,2.139
						C102.158,344.629,102.153,344.62,102.148,344.611z"/>
				</g>
			</g>
			<g>
				<path style="fill:#253239;" d="M145.231,87.617c0,1.182-0.83,2.62-1.854,3.211c-1.024,0.591-1.854,0.112-1.854-1.07
					c0-1.182,0.83-2.62,1.854-3.211C144.401,85.955,145.231,86.434,145.231,87.617z"/>
				<path style="fill:#253239;" d="M152.127,83.635c0,1.182-0.83,2.62-1.854,3.211c-1.024,0.591-1.854,0.112-1.854-1.07
					c0-1.182,0.83-2.62,1.854-3.211C151.297,81.974,152.127,82.453,152.127,83.635z"/>
				<path style="fill:#253239;" d="M179.963,69.704L157.541,82.65c-0.887,0.512-1.605-0.032-1.605-1.214l0,0
					c0-1.182,0.719-2.556,1.605-3.067l22.423-12.946c0.887-0.512,1.605,0.031,1.605,1.214l0,0
					C181.568,67.819,180.85,69.192,179.963,69.704z"/>
			</g>
			<path style="fill:#253239;" d="M176.17,315.452L176.17,315.452c1.339,0,2.205,1.42,2.205,3.618c0,3.455-2.161,7.621-4.718,9.097
				l-10.725,6.192c-0.573,0.331-1.11,0.499-1.597,0.499c-1.34,0-2.205-1.42-2.205-3.618c0-3.454,2.161-7.62,4.718-9.097
				l10.725-6.192C175.145,315.62,175.682,315.452,176.17,315.452 M176.169,314.536c-0.63,0-1.325,0.2-2.055,0.621l-10.725,6.192
				c-2.859,1.65-5.176,6.078-5.176,9.89c0,2.838,1.284,4.534,3.121,4.534c0.63,0,1.325-0.2,2.055-0.621l10.725-6.192
				c2.859-1.65,5.176-6.079,5.176-9.89C179.29,316.232,178.006,314.536,176.169,314.536L176.169,314.536z"/>
		</g>
	</g>
</g>
<g id="Screens">
	<g>
		<g>
			<g>
				<path style="fill:#EBEBEB;" d="M245.064,65.231l-5.428-3.206c-1.703-1.122-3.986-1.351-5.997-0.171l-38.84,22.767v1.822
					c0,5.619-4.556,12.802-10.174,16.05l-12.254,7.067c-4.188,2.421-7.783,1.963-9.344-0.753l3.984-2.335l-4.815-2.741
					l-39.611,23.211c-4.825,2.827-7.78,7.99-7.78,13.585v241.438c0,2.17,1.165,3.929,2.796,4.891l-0.002,0.002l0.035,0.02
					c0.037,0.021,0.074,0.042,0.111,0.062l5.287,2.974v-2.888c0.123-0.063,0.249-0.117,0.37-0.19
					c28.899-17.405,87.27-52.25,109.71-65.637c5.63-3.353,9.076-9.427,9.076-15.98V68.105L245.064,65.231z"/>
				<path style="fill:#EBEBEB;" d="M122.788,390.35l-5.418-3.101l-0.021,0.037c-1.905-1.123-3.042-3.112-3.042-5.321V140.526
					c0-5.745,3.075-11.116,8.026-14.017l39.611-23.211l0.5-0.003l4.814,2.741l0.006,0.866l-3.533,2.07
					c0.545,0.744,1.285,1.245,2.206,1.493c1.706,0.457,3.898-0.018,6.184-1.339l12.254-7.067c5.472-3.163,9.924-10.168,9.924-15.617
					V84.62l0.247-0.431l38.84-22.767c2.036-1.195,4.537-1.126,6.525,0.185l5.406,3.192l0.1,0.784l-2.728,2.728v236.907
					c0,6.699-3.571,12.987-9.32,16.41c-12.842,7.661-78.488,46.833-109.708,65.636c-0.042,0.025-0.085,0.049-0.128,0.071v2.578
					L122.788,390.35z M117.857,386.428l4.676,2.631v-2.033l0.275-0.446l0.12-0.06c0.072-0.034,0.146-0.068,0.216-0.111
					c31.223-18.805,96.87-57.977,109.713-65.639c5.448-3.243,8.832-9.202,8.832-15.551V68.105l0.146-0.354l2.418-2.419l-4.872-2.877
					c-1.687-1.111-3.783-1.172-5.49-0.171l-38.593,22.622v1.536c0,5.766-4.676,13.16-10.424,16.483l-12.254,7.067
					c-2.517,1.455-4.983,1.967-6.942,1.439c-1.331-0.357-2.397-1.179-3.085-2.376l0.181-0.68l3.237-1.897l-3.811-2.17
					l-39.362,23.065c-4.646,2.722-7.532,7.762-7.532,13.154v241.438c0,1.851,0.953,3.519,2.55,4.46L117.857,386.428z"/>
			</g>
			<g>
				<g>
					<path style="fill:#FAFAFA;" d="M247.005,69.489V307.96c0,6.553-3.446,12.627-9.076,15.98
						c-22.44,13.387-80.811,48.232-109.71,65.637c-3.785,2.278-8.597-0.456-8.597-4.871V143.267c0-5.595,2.955-10.758,7.78-13.585
						l39.611-23.21v1.53c0,5.619,4.556,7.546,10.174,4.299l12.254-7.067c5.618-3.247,10.174-10.431,10.174-16.05v-1.822
						l38.84-22.767C242.239,62.375,247.005,65.108,247.005,69.489z"/>
					<path style="fill:#EBEBEB;" d="M246.505,69.489c0,3.457,0,6.914,0,10.372c0,9.106,0,18.211,0,27.317
						c0,12.804,0,25.609,0,38.413c0,14.649,0,29.297,0,43.946c0,14.665,0,29.331,0,43.996c0,12.732,0,25.464,0,38.197
						c0,8.877,0,17.755,0,26.632c0,4.024,0.418,8.373-0.21,12.375c-0.917,5.842-4.513,10.323-9.493,13.294
						c-2.912,1.737-5.823,3.475-8.735,5.212c-7.817,4.665-15.632,9.332-23.447,14c-18.138,10.834-36.273,21.675-54.395,32.537
						c-3.973,2.381-7.945,4.764-11.916,7.148c-3.531,2.12-7.02,4.597-10.711,6.423c-3.554,1.758-7.352-0.968-7.476-4.735
						c-0.013-0.386,0-0.774,0-1.16c0-5.494,0-10.989,0-16.483c0-10.481,0-20.963,0-31.444c0-13.608,0-27.217,0-40.826
						c0-14.831,0-29.662,0-44.493c0-14.267,0-28.534,0-42.801c0-11.909,0-23.817,0-35.726c0-7.628,0-15.256,0-22.883
						c0-1.661-0.003-3.321,0-4.982c0.011-5.728,2.696-10.807,7.659-13.777c9.982-5.974,20.079-11.765,30.116-17.647
						c3.123-1.83,6.245-3.66,9.368-5.49c-0.251-0.144-0.501-0.288-0.752-0.432c0,1.889-0.046,3.834,0.998,5.5
						c1.089,1.739,3.039,2.511,5.039,2.392c3.287-0.195,6.321-2.457,9.097-4.058c2.68-1.546,5.382-3.059,8.043-4.639
						c4.833-2.87,8.786-7.996,10.061-13.506c0.232-1.002,0.349-2.013,0.365-3.04c0.006-0.389,0.081-0.913,0-1.287
						c-0.113-0.517,0.173-0.384-0.214-0.06c0.365-0.305,0.878-0.514,1.286-0.754c2.365-1.386,4.729-2.772,7.094-4.158
						c6.978-4.09,13.955-8.18,20.933-12.27c2.743-1.608,5.485-3.215,8.228-4.823c0.42-0.246,0.834-0.512,1.264-0.741
						C242.231,63.146,246.359,65.473,246.505,69.489c0.023,0.642,1.023,0.645,1,0c-0.172-4.753-5.113-7.605-9.305-5.325
						c-1.302,0.708-2.564,1.503-3.842,2.252c-6.583,3.858-13.165,7.717-19.748,11.576c-3.198,1.874-6.396,3.749-9.594,5.623
						c-1.754,1.028-3.684,1.947-5.34,3.13c-0.556,0.397-0.562,0.618-0.562,1.376c0,2.799-0.571,5.359-1.852,7.868
						c-2.201,4.31-5.564,7.365-9.686,9.742c-3.419,1.972-6.833,3.955-10.258,5.916c-2.092,1.198-4.825,2.423-7.221,1.332
						c-2.569-1.17-2.585-4.088-2.585-6.507c0-0.379-0.425-0.624-0.752-0.432c-9.669,5.666-19.338,11.332-29.008,16.997
						c-3.53,2.068-7.088,4.096-10.593,6.207c-5.172,3.115-8.024,8.522-8.038,14.505c-0.011,4.798,0,9.596,0,14.394
						c0,10.115,0,20.23,0,30.346c0,13.463,0,26.926,0,40.39c0,15.002,0,30.004,0,45.006c0,14.585,0,29.171,0,43.756
						c0,12.257,0,24.514,0,36.771c0,7.998,0,15.997,0,23.995c0,1.833,0,3.666,0,5.499c0,0.265-0.008,0.531,0,0.796
						c0.115,3.659,3.227,6.618,6.96,6.142c2.035-0.259,3.818-1.694,5.533-2.726c1.748-1.051,3.496-2.102,5.245-3.153
						c4.011-2.41,8.024-4.817,12.038-7.224c9.06-5.432,18.124-10.857,27.189-16.279c17.199-10.287,34.404-20.564,51.613-30.835
						c7.029-4.195,15.478-7.746,18.576-15.925c1.045-2.758,1.23-5.577,1.23-8.467c0-5.99,0-11.981,0-17.971
						c0-10.942,0-21.884,0-32.826c0-14.006,0-28.012,0-42.018c0-15.078,0-30.156,0-45.234c0-14.188,0-28.377,0-42.565
						c0-11.304,0-22.609,0-33.913c0-6.546,0-13.093,0-19.639c0-0.86,0-1.72,0-2.579C247.505,68.845,246.505,68.844,246.505,69.489z"
						/>
				</g>
			</g>
		</g>
		<g>
			<path style="fill:#BA68C8;" d="M149.07,147.39c0,4.472-3.139,9.91-7.012,12.145c-3.873,2.236-7.012,0.423-7.012-4.048
				c0-4.472,3.139-9.91,7.012-12.145C145.93,141.105,149.07,142.918,149.07,147.39z"/>
			<g>
				<path style="fill:#BA68C8;" d="M155.76,141.56c-0.346,0-0.682-0.179-0.867-0.5c-0.276-0.479-0.112-1.09,0.366-1.366
					l32.287-18.641c0.477-0.277,1.089-0.113,1.366,0.366c0.276,0.479,0.112,1.09-0.366,1.366l-32.287,18.641
					C156.102,141.517,155.93,141.56,155.76,141.56z"/>
				<path style="fill:#BA68C8;" d="M155.76,147.67c-0.346,0-0.682-0.179-0.867-0.5c-0.276-0.479-0.112-1.09,0.366-1.366
					l19.804-11.434c0.476-0.277,1.089-0.113,1.366,0.366c0.276,0.479,0.112,1.09-0.366,1.366l-19.804,11.434
					C156.102,147.627,155.93,147.67,155.76,147.67z"/>
			</g>
		</g>
		<g>
			<g>
				<g>
					<path style="fill:#E0E0E0;" d="M232.615,194.355l-94.258,54.42c-1.829,1.056-3.311-0.065-3.311-2.503v-69.473
						c0-2.438,1.482-5.27,3.311-6.326l94.258-54.42c1.829-1.056,3.311,0.065,3.311,2.503v69.472
						C235.926,190.467,234.443,193.299,232.615,194.355z"/>
				</g>
			</g>
			<g>
				<path style="fill:#FFFFFF;" d="M144.754,178.535c-0.346,0-0.682-0.179-0.867-0.5c-0.276-0.479-0.112-1.09,0.366-1.366
					l81.465-47.034c0.477-0.275,1.09-0.112,1.366,0.366s0.112,1.09-0.366,1.366l-81.465,47.034
					C145.096,178.492,144.924,178.535,144.754,178.535z"/>
				<path style="fill:#FFFFFF;" d="M144.754,188c-0.346,0-0.682-0.179-0.867-0.5c-0.276-0.479-0.112-1.09,0.366-1.366l81.465-47.034
					c0.477-0.276,1.09-0.112,1.366,0.366s0.112,1.09-0.366,1.366l-81.465,47.034C145.096,187.957,144.924,188,144.754,188z"/>
				<path style="fill:#FFFFFF;" d="M144.754,197.466c-0.346,0-0.682-0.179-0.867-0.5c-0.276-0.479-0.112-1.09,0.366-1.366
					l81.465-47.034c0.477-0.276,1.09-0.113,1.366,0.366c0.276,0.479,0.112,1.09-0.366,1.366l-81.465,47.034
					C145.096,197.423,144.924,197.466,144.754,197.466z"/>
				<path style="fill:#FFFFFF;" d="M144.754,206.931c-0.346,0-0.682-0.179-0.867-0.5c-0.276-0.479-0.112-1.09,0.366-1.366
					l81.465-47.034c0.477-0.276,1.09-0.112,1.366,0.366c0.276,0.479,0.112,1.09-0.366,1.366l-81.465,47.034
					C145.096,206.888,144.924,206.931,144.754,206.931z"/>
				<path style="fill:#FFFFFF;" d="M144.754,216.396c-0.346,0-0.682-0.179-0.867-0.5c-0.276-0.479-0.112-1.09,0.366-1.366
					l81.465-47.034c0.477-0.276,1.09-0.113,1.366,0.366c0.276,0.479,0.112,1.09-0.366,1.366l-81.465,47.034
					C145.096,216.354,144.924,216.396,144.754,216.396z"/>
				<path style="fill:#FFFFFF;" d="M144.754,225.862c-0.346,0-0.682-0.179-0.867-0.5c-0.276-0.479-0.112-1.09,0.366-1.366
					l81.465-47.034c0.477-0.276,1.09-0.112,1.366,0.366s0.112,1.09-0.366,1.366l-81.465,47.034
					C145.096,225.819,144.924,225.862,144.754,225.862z"/>
				<path style="fill:#FFFFFF;" d="M144.754,235.328c-0.346,0-0.682-0.179-0.867-0.5c-0.276-0.479-0.112-1.09,0.366-1.366
					l81.465-47.034c0.477-0.277,1.09-0.113,1.366,0.366c0.276,0.479,0.112,1.09-0.366,1.366l-81.465,47.034
					C145.096,235.285,144.924,235.328,144.754,235.328z"/>
			</g>
		</g>
		<g>
			
				<ellipse transform="matrix(0.5 -0.866 0.866 0.5 -159.341 256.0276)" style="fill:#BA68C8;" cx="142.058" cy="266.008" rx="9.917" ry="5.725"/>
			<path style="opacity:0.6;fill:#FFFFFF;" d="M149.07,147.39c0,4.472-3.139,9.91-7.012,12.145
				c-3.873,2.236-7.012,0.423-7.012-4.048c0-4.472,3.139-9.91,7.012-12.145C145.93,141.105,149.07,142.918,149.07,147.39z"/>
			
				<ellipse transform="matrix(0.5 -0.866 0.866 0.5 -159.341 256.0276)" style="opacity:0.6;fill:#FFFFFF;" cx="142.058" cy="266.008" rx="9.917" ry="5.725"/>
			<g>
				<path style="fill:#BA68C8;" d="M155.76,256.13c-0.346,0-0.682-0.179-0.867-0.5c-0.276-0.479-0.112-1.09,0.366-1.366
					l32.287-18.641c0.477-0.276,1.089-0.112,1.366,0.366c0.276,0.479,0.112,1.09-0.366,1.366l-32.287,18.641
					C156.102,256.087,155.93,256.13,155.76,256.13z"/>
				<path style="fill:#BA68C8;" d="M155.76,262.24c-0.346,0-0.682-0.179-0.867-0.5c-0.276-0.479-0.112-1.09,0.366-1.366
					l19.804-11.434c0.476-0.276,1.089-0.112,1.366,0.366c0.276,0.479,0.112,1.09-0.366,1.366l-19.804,11.434
					C156.102,262.197,155.93,262.24,155.76,262.24z"/>
			</g>
		</g>
		<g>
			<g>
				<g>
					<path style="fill:#E0E0E0;" d="M232.615,308.925l-94.258,54.42c-1.829,1.056-3.311-0.065-3.311-2.503V291.37
						c0-2.438,1.482-5.27,3.311-6.326l94.258-54.42c1.829-1.056,3.311,0.065,3.311,2.503v69.472
						C235.926,305.037,234.443,307.869,232.615,308.925z"/>
				</g>
			</g>
			<g>
				<path style="fill:#FFFFFF;" d="M144.754,293.104c-0.346,0-0.682-0.179-0.867-0.5c-0.276-0.478-0.112-1.09,0.366-1.366
					l81.465-47.034c0.477-0.276,1.09-0.112,1.366,0.366s0.112,1.09-0.366,1.366l-81.465,47.034
					C145.096,293.061,144.924,293.104,144.754,293.104z"/>
				<path style="fill:#FFFFFF;" d="M144.754,302.57c-0.346,0-0.682-0.179-0.867-0.5c-0.276-0.479-0.112-1.09,0.366-1.366
					l81.465-47.034c0.477-0.276,1.09-0.113,1.366,0.366c0.276,0.479,0.112,1.09-0.366,1.366l-81.465,47.034
					C145.096,302.527,144.924,302.57,144.754,302.57z"/>
				<path style="fill:#FFFFFF;" d="M144.754,312.036c-0.346,0-0.682-0.179-0.867-0.5c-0.276-0.479-0.112-1.09,0.366-1.366
					l81.465-47.034c0.477-0.275,1.09-0.113,1.366,0.366c0.276,0.478,0.112,1.09-0.366,1.366l-81.465,47.034
					C145.096,311.993,144.924,312.036,144.754,312.036z"/>
				<path style="fill:#FFFFFF;" d="M144.754,321.501c-0.346,0-0.682-0.179-0.867-0.5c-0.276-0.479-0.112-1.09,0.366-1.366
					l81.465-47.033c0.477-0.276,1.09-0.113,1.366,0.366c0.276,0.478,0.112,1.09-0.366,1.366l-81.465,47.033
					C145.096,321.458,144.924,321.501,144.754,321.501z"/>
				<path style="fill:#FFFFFF;" d="M144.754,330.967c-0.346,0-0.682-0.179-0.867-0.5c-0.276-0.478-0.112-1.09,0.366-1.366
					l81.465-47.034c0.477-0.276,1.09-0.113,1.366,0.366c0.276,0.479,0.112,1.09-0.366,1.366l-81.465,47.034
					C145.096,330.924,144.924,330.967,144.754,330.967z"/>
				<path style="fill:#FFFFFF;" d="M144.754,340.433c-0.346,0-0.682-0.179-0.867-0.5c-0.276-0.478-0.112-1.09,0.366-1.366
					l81.465-47.034c0.477-0.275,1.09-0.113,1.366,0.366c0.276,0.479,0.112,1.09-0.366,1.366l-81.465,47.034
					C145.096,340.39,144.924,340.433,144.754,340.433z"/>
				<path style="fill:#FFFFFF;" d="M144.754,349.897c-0.346,0-0.682-0.179-0.867-0.5c-0.276-0.479-0.112-1.09,0.366-1.366
					l81.465-47.034c0.477-0.277,1.09-0.113,1.366,0.366c0.276,0.478,0.112,1.09-0.366,1.366l-81.465,47.034
					C145.096,349.854,144.924,349.897,144.754,349.897z"/>
			</g>
		</g>
	</g>
	<g>
		<g>
			<g>
				<path style="fill:#EBEBEB;" d="M284.692,87.808l-4.99-2.863c-0.296-0.209-0.61-0.389-0.94-0.539l0,0l0,0
					c-1.584-0.721-3.497-0.741-5.213,0.266l-38.84,22.767v1.822c0,5.619-4.556,12.802-10.174,16.05l-12.254,7.067
					c-4.189,2.421-7.784,1.963-9.344-0.754l3.984-2.335l-4.815-2.741l-39.611,23.211c-4.824,2.827-7.779,7.99-7.779,13.585v241.438
					c0,2.17,1.165,3.929,2.796,4.891l-0.002,0.002l0.035,0.02c0.037,0.021,0.074,0.042,0.111,0.062l5.287,2.974v-2.888
					c0.124-0.063,0.249-0.117,0.37-0.19c28.899-17.405,87.27-52.25,109.71-65.637c5.63-3.353,9.076-9.427,9.076-15.98V90.401
					L284.692,87.808z"/>
				<path style="fill:#EBEBEB;" d="M162.697,413.167l-5.403-3.039l-0.011-0.065l-0.024,0.042c-1.905-1.124-3.043-3.114-3.043-5.322
					V163.344c0-5.745,3.076-11.116,8.027-14.017l39.61-23.21l0.5-0.003l4.815,2.741l0.006,0.866l-3.533,2.071
					c0.545,0.744,1.284,1.245,2.205,1.492c1.706,0.456,3.899-0.019,6.185-1.339l12.253-7.067c5.473-3.162,9.925-10.168,9.925-15.617
					v-1.822l0.247-0.431l38.84-22.767c1.753-1.027,3.821-1.133,5.673-0.289c0.358,0.164,0.702,0.36,1.021,0.586l4.951,2.837
					l0.104,0.787l-2.446,2.446v237.429c0,6.698-3.571,12.985-9.32,16.409c-7.815,4.662-77.297,46.116-109.708,65.636
					c-0.042,0.025-0.085,0.049-0.129,0.072v2.577L162.697,413.167z M157.768,409.246l4.675,2.631v-2.033l0.272-0.445l0.133-0.065
					c0.069-0.033,0.14-0.066,0.207-0.107c32.414-19.52,101.896-60.976,109.713-65.639c5.448-3.244,8.832-9.202,8.832-15.55V90.401
					l0.146-0.354l2.131-2.131l-4.424-2.538c-0.308-0.215-0.597-0.381-0.898-0.518c-1.552-0.708-3.284-0.619-4.753,0.242
					l-38.593,22.622v1.536c0,5.767-4.677,13.161-10.425,16.483l-12.253,7.067c-2.518,1.456-4.986,1.964-6.944,1.438
					c-1.33-0.358-2.395-1.18-3.083-2.376l0.181-0.68l3.237-1.898l-3.812-2.17l-39.361,23.065c-4.646,2.722-7.533,7.763-7.533,13.154
					v241.438c0,1.851,0.954,3.519,2.551,4.461L157.768,409.246z"/>
			</g>
			<g>
				<g>
					<path style="fill:#FAFAFA;" d="M286.914,92.307v238.471c0,6.553-3.446,12.627-9.076,15.98
						c-22.44,13.387-80.811,48.232-109.71,65.637c-3.785,2.278-8.597-0.456-8.597-4.871V166.085c0-5.595,2.955-10.758,7.78-13.585
						l39.611-23.21v1.53c0,5.619,4.556,7.546,10.174,4.299l12.254-7.067c5.618-3.247,10.174-10.431,10.174-16.05v-1.822
						l38.84-22.767C282.149,85.193,286.914,87.926,286.914,92.307z"/>
					<path style="fill:#EBEBEB;" d="M286.414,92.307c0,3.457,0,6.914,0,10.372c0,9.106,0,18.211,0,27.317
						c0,12.805,0,25.609,0,38.413c0,14.649,0,29.298,0,43.946c0,14.665,0,29.331,0,43.996c0,12.732,0,25.464,0,38.197
						c0,8.877,0,17.755,0,26.632c0,4.024,0.418,8.374-0.21,12.375c-0.917,5.842-4.513,10.323-9.493,13.294
						c-2.912,1.737-5.823,3.475-8.735,5.212c-7.817,4.665-15.633,9.332-23.447,14c-18.138,10.834-36.273,21.675-54.395,32.537
						c-3.973,2.381-7.945,4.764-11.916,7.148c-3.531,2.12-7.02,4.597-10.71,6.423c-3.554,1.758-7.352-0.968-7.476-4.735
						c-0.013-0.386,0-0.774,0-1.16c0-5.494,0-10.989,0-16.483c0-10.481,0-20.963,0-31.444c0-13.608,0-27.217,0-40.826
						c0-14.831,0-29.662,0-44.493c0-14.267,0-28.534,0-42.801c0-11.909,0-23.817,0-35.726c0-7.628,0-15.256,0-22.883
						c0-1.66-0.003-3.321,0-4.982c0.011-5.728,2.696-10.807,7.659-13.777c9.982-5.974,20.079-11.765,30.116-17.647
						c3.123-1.83,6.245-3.66,9.368-5.49c-0.251-0.144-0.502-0.288-0.752-0.432c0,1.889-0.046,3.834,0.998,5.5
						c1.089,1.739,3.039,2.511,5.039,2.392c3.287-0.195,6.321-2.457,9.096-4.058c2.68-1.546,5.382-3.059,8.043-4.639
						c4.833-2.87,8.785-7.996,10.061-13.506c0.232-1.002,0.349-2.013,0.365-3.04c0.006-0.389,0.081-0.913,0-1.287
						c-0.113-0.517,0.173-0.384-0.214-0.06c0.365-0.305,0.878-0.514,1.286-0.754c2.365-1.386,4.729-2.772,7.094-4.158
						c6.978-4.09,13.955-8.18,20.933-12.27c2.743-1.608,5.485-3.215,8.228-4.823c0.42-0.246,0.834-0.512,1.264-0.741
						C282.141,85.964,286.269,88.291,286.414,92.307c0.023,0.642,1.023,0.645,1,0c-0.172-4.753-5.113-7.605-9.306-5.325
						c-1.302,0.708-2.564,1.503-3.842,2.252c-6.583,3.858-13.165,7.717-19.748,11.575c-3.198,1.874-6.396,3.749-9.594,5.623
						c-1.754,1.028-3.684,1.947-5.34,3.13c-0.556,0.397-0.562,0.618-0.562,1.376c0,2.799-0.571,5.359-1.852,7.868
						c-2.201,4.31-5.564,7.364-9.686,9.742c-3.419,1.972-6.833,3.955-10.258,5.916c-2.092,1.198-4.825,2.423-7.221,1.332
						c-2.569-1.17-2.585-4.088-2.585-6.507c0-0.379-0.425-0.624-0.752-0.432c-9.669,5.666-19.338,11.332-29.008,16.997
						c-3.53,2.068-7.088,4.096-10.593,6.207c-5.172,3.115-8.024,8.522-8.038,14.505c-0.011,4.798,0,9.596,0,14.394
						c0,10.115,0,20.23,0,30.346c0,13.463,0,26.926,0,40.39c0,15.002,0,30.004,0,45.006c0,14.585,0,29.171,0,43.756
						c0,12.257,0,24.514,0,36.771c0,7.998,0,15.997,0,23.995c0,1.833,0,3.666,0,5.499c0,0.265-0.008,0.531,0,0.796
						c0.115,3.659,3.227,6.618,6.96,6.142c2.035-0.259,3.818-1.694,5.533-2.726c1.748-1.051,3.496-2.102,5.245-3.153
						c4.012-2.41,8.024-4.817,12.038-7.224c9.06-5.432,18.124-10.857,27.189-16.279c17.199-10.287,34.404-20.564,51.613-30.835
						c7.029-4.195,15.477-7.746,18.576-15.925c1.045-2.758,1.23-5.577,1.23-8.467c0-5.99,0-11.981,0-17.971
						c0-10.942,0-21.884,0-32.826c0-14.006,0-28.012,0-42.018c0-15.078,0-30.156,0-45.234c0-14.188,0-28.377,0-42.565
						c0-11.305,0-22.609,0-33.913c0-6.546,0-13.093,0-19.639c0-0.86,0-1.72,0-2.579C287.414,91.663,286.414,91.662,286.414,92.307z"
						/>
				</g>
			</g>
		</g>
		<g>
			<path style="fill:#BA68C8;" d="M213.894,366.458l-36.322,20.97c-2.645,1.527-4.789-0.094-4.789-3.62l0,0
				c0-3.526,2.144-7.623,4.789-9.15l36.322-20.971c2.645-1.527,4.789,0.094,4.789,3.62l0,0
				C218.682,360.835,216.538,364.931,213.894,366.458z"/>
			<path style="fill:#BA68C8;" d="M268.874,333.082l-36.322,20.971c-2.645,1.527-4.789-0.094-4.789-3.62l0,0
				c0-3.526,2.144-7.623,4.789-9.15l36.322-20.971c2.645-1.527,4.789,0.094,4.789,3.62l0,0
				C273.663,327.459,271.519,331.555,268.874,333.082z"/>
			<path style="opacity:0.6;fill:#FFFFFF;" d="M213.894,366.458l-36.322,20.97c-2.645,1.527-4.789-0.094-4.789-3.62l0,0
				c0-3.526,2.144-7.623,4.789-9.15l36.322-20.971c2.645-1.527,4.789,0.094,4.789,3.62l0,0
				C218.682,360.835,216.538,364.931,213.894,366.458z"/>
			<path style="opacity:0.6;fill:#FFFFFF;" d="M268.874,333.082l-36.322,20.971c-2.645,1.527-4.789-0.094-4.789-3.62l0,0
				c0-3.526,2.144-7.623,4.789-9.15l36.322-20.971c2.645-1.527,4.789,0.094,4.789,3.62l0,0
				C273.663,327.459,271.519,331.555,268.874,333.082z"/>
			<g>
				<g>
					<g>
						<path style="fill:#BA68C8;" d="M270.352,206.053l-94.258,54.42c-1.829,1.056-3.311-0.065-3.311-2.503v-79.915
							c0-2.438,1.482-5.27,3.311-6.326l94.258-54.42c1.829-1.056,3.311,0.065,3.311,2.503v79.915
							C273.663,202.165,272.18,204.997,270.352,206.053z"/>
						<path style="opacity:0.6;fill:#FFFFFF;" d="M270.352,206.053l-94.258,54.42c-1.829,1.056-3.311-0.065-3.311-2.503v-79.915
							c0-2.438,1.482-5.27,3.311-6.326l94.258-54.42c1.829-1.056,3.311,0.065,3.311,2.503v79.915
							C273.663,202.165,272.18,204.997,270.352,206.053z"/>
					</g>
				</g>
			</g>
			<g>
				<g>
					<g>
						<path style="fill:#BA68C8;" d="M270.352,309.216l-94.258,54.42c-1.829,1.056-3.311-0.065-3.311-2.503v-79.915
							c0-2.438,1.482-5.27,3.311-6.326l94.258-54.42c1.829-1.056,3.311,0.065,3.311,2.503v79.915
							C273.663,305.328,272.18,308.16,270.352,309.216z"/>
						<path style="opacity:0.6;fill:#FFFFFF;" d="M270.352,309.216l-94.258,54.42c-1.829,1.056-3.311-0.065-3.311-2.503v-79.915
							c0-2.438,1.482-5.27,3.311-6.326l94.258-54.42c1.829-1.056,3.311,0.065,3.311,2.503v79.915
							C273.663,305.328,272.18,308.16,270.352,309.216z"/>
					</g>
				</g>
			</g>
		</g>
	</g>
	<g>
		<g>
			<g>
				<path style="fill:#EBEBEB;" d="M324.629,111.013l-5.484-3.234c-1.691-1.064-3.924-1.26-5.895-0.104l-38.84,22.766v1.822
					c0,5.619-4.556,12.803-10.174,16.05l-12.254,7.067c-4.188,2.421-7.783,1.963-9.344-0.754l3.984-2.335l-4.815-2.741
					l-39.611,23.21c-4.824,2.827-7.779,7.99-7.779,13.585v241.438c0,2.17,1.165,3.929,2.796,4.891l-0.002,0.002l0.035,0.02
					c0.037,0.021,0.074,0.042,0.111,0.062l5.287,2.974v-2.888c0.124-0.063,0.249-0.117,0.37-0.19
					c28.899-17.405,87.27-52.25,109.71-65.637c5.63-3.353,9.076-9.427,9.076-15.98V113.842L324.629,111.013z"/>
				<path style="fill:#EBEBEB;" d="M202.399,436.171l-5.404-3.04l-0.011-0.065l-0.024,0.042c-1.905-1.123-3.043-3.112-3.043-5.321
					V186.348c0-5.744,3.076-11.115,8.027-14.017l39.61-23.21l0.5-0.003l4.815,2.741l0.006,0.866l-3.533,2.07
					c0.545,0.744,1.284,1.245,2.205,1.492c1.703,0.459,3.897-0.017,6.185-1.339l12.253-7.067c5.473-3.163,9.925-10.169,9.925-15.617
					v-1.822l0.247-0.431l38.84-22.767c1.991-1.169,4.449-1.124,6.414,0.112l5.472,3.226l0.1,0.784l-2.682,2.682v236.992
					c0,6.698-3.571,12.985-9.32,16.409c-12.784,7.626-78.156,46.633-109.708,65.636c-0.042,0.025-0.085,0.049-0.128,0.071v2.578
					L202.399,436.171z M197.468,432.249l4.677,2.631v-2.033l0.273-0.446l0.128-0.063c0.07-0.033,0.142-0.067,0.21-0.108
					c31.555-19.004,96.928-58.012,109.713-65.639c5.448-3.244,8.832-9.202,8.832-15.55V113.842l0.146-0.354l2.372-2.372
					l-4.929-2.906c-1.685-1.061-3.695-1.095-5.388-0.104l-38.593,22.622v1.536c0,5.767-4.677,13.161-10.425,16.483l-12.253,7.067
					c-2.517,1.454-4.982,1.965-6.944,1.438c-1.33-0.358-2.396-1.179-3.083-2.376l0.181-0.681l3.237-1.896l-3.812-2.17
					l-39.361,23.064c-4.646,2.723-7.533,7.763-7.533,13.154v241.438c0,1.852,0.953,3.519,2.551,4.46V432.249z"/>
			</g>
			<g>
				<g>
					<path style="fill:#FAFAFA;" d="M326.616,115.31v238.471c0,6.553-3.446,12.627-9.076,15.98
						c-22.44,13.387-80.811,48.232-109.71,65.637c-3.785,2.278-8.597-0.456-8.597-4.871V189.089c0-5.595,2.955-10.758,7.78-13.585
						l39.611-23.21v1.53c0,5.619,4.556,7.546,10.174,4.299l12.254-7.067c5.618-3.247,10.174-10.431,10.174-16.05v-1.822
						l38.84-22.767C321.85,108.196,326.616,110.93,326.616,115.31z"/>
					<path style="fill:#EBEBEB;" d="M326.116,115.31c0,3.457,0,6.914,0,10.372c0,9.106,0,18.211,0,27.317
						c0,12.804,0,25.609,0,38.413c0,14.649,0,29.298,0,43.946c0,14.665,0,29.331,0,43.996c0,12.732,0,25.464,0,38.197
						c0,8.877,0,17.755,0,26.632c0,4.024,0.418,8.373-0.211,12.375c-0.917,5.842-4.513,10.323-9.493,13.294
						c-2.912,1.737-5.823,3.474-8.735,5.212c-7.817,4.665-15.633,9.332-23.447,14c-18.138,10.834-36.273,21.675-54.395,32.537
						c-3.973,2.381-7.945,4.764-11.916,7.148c-3.531,2.12-7.019,4.597-10.71,6.423c-3.554,1.758-7.352-0.968-7.476-4.735
						c-0.013-0.386,0-0.774,0-1.16c0-5.494,0-10.989,0-16.483c0-10.481,0-20.963,0-31.444c0-13.608,0-27.217,0-40.826
						c0-14.831,0-29.662,0-44.493c0-14.267,0-28.534,0-42.801c0-11.909,0-23.817,0-35.726c0-7.628,0-15.256,0-22.883
						c0-1.66-0.003-3.321,0-4.981c0.011-5.728,2.696-10.808,7.659-13.777c9.982-5.974,20.079-11.765,30.116-17.647
						c3.123-1.83,6.245-3.66,9.368-5.489c-0.251-0.144-0.502-0.288-0.752-0.432c0,1.889-0.046,3.834,0.998,5.5
						c1.089,1.739,3.039,2.511,5.039,2.392c3.287-0.195,6.321-2.457,9.097-4.058c2.68-1.546,5.382-3.059,8.043-4.639
						c4.833-2.87,8.785-7.996,10.061-13.507c0.232-1.002,0.349-2.013,0.365-3.04c0.006-0.389,0.081-0.913,0-1.287
						c-0.113-0.517,0.173-0.384-0.214-0.06c0.365-0.305,0.878-0.514,1.286-0.754c2.365-1.386,4.729-2.772,7.094-4.158
						c6.978-4.09,13.955-8.18,20.933-12.27c2.743-1.608,5.485-3.215,8.228-4.823c0.42-0.246,0.834-0.512,1.264-0.741
						C321.842,108.968,325.97,111.295,326.116,115.31c0.023,0.642,1.023,0.645,1,0c-0.172-4.753-5.113-7.605-9.306-5.325
						c-1.302,0.708-2.564,1.503-3.842,2.252c-6.583,3.858-13.165,7.717-19.748,11.575c-3.198,1.874-6.396,3.749-9.594,5.623
						c-1.754,1.028-3.684,1.947-5.34,3.13c-0.556,0.397-0.562,0.618-0.562,1.376c0,2.799-0.571,5.359-1.852,7.868
						c-2.201,4.31-5.564,7.364-9.686,9.742c-3.419,1.972-6.833,3.955-10.258,5.916c-2.092,1.198-4.825,2.423-7.221,1.331
						c-2.569-1.17-2.585-4.088-2.585-6.507c0-0.379-0.425-0.624-0.752-0.432c-9.669,5.666-19.338,11.332-29.008,16.997
						c-3.53,2.068-7.088,4.096-10.593,6.207c-5.172,3.115-8.024,8.521-8.038,14.505c-0.011,4.798,0,9.596,0,14.394
						c0,10.115,0,20.23,0,30.346c0,13.463,0,26.926,0,40.39c0,15.002,0,30.004,0,45.005c0,14.585,0,29.171,0,43.756
						c0,12.257,0,24.514,0,36.771c0,7.998,0,15.997,0,23.995c0,1.833,0,3.666,0,5.499c0,0.265-0.008,0.531,0,0.796
						c0.115,3.659,3.227,6.618,6.96,6.142c2.035-0.259,3.818-1.694,5.533-2.726c1.748-1.051,3.496-2.102,5.245-3.153
						c4.012-2.41,8.024-4.817,12.038-7.224c9.06-5.432,18.123-10.857,27.189-16.279c17.199-10.287,34.404-20.564,51.613-30.835
						c7.029-4.195,15.478-7.746,18.576-15.925c1.045-2.758,1.23-5.577,1.23-8.467c0-5.99,0-11.981,0-17.971
						c0-10.942,0-21.884,0-32.826c0-14.006,0-28.012,0-42.019c0-15.078,0-30.156,0-45.234c0-14.188,0-28.377,0-42.565
						c0-11.305,0-22.609,0-33.913c0-6.546,0-13.093,0-19.639c0-0.86,0-1.719,0-2.579
						C327.116,114.667,326.116,114.666,326.116,115.31z"/>
				</g>
			</g>
		</g>
		<g>
			<g>
				<g>
					<path style="fill:#BA68C8;" d="M310.053,160.26l-94.258,54.42c-1.828,1.056-3.311-0.065-3.311-2.503v-9.828
						c0-2.438,1.482-5.271,3.311-6.326l94.258-54.42c1.829-1.056,3.311,0.065,3.311,2.503v9.828
						C313.364,156.372,311.882,159.204,310.053,160.26z"/>
					<path style="opacity:0.6;fill:#FFFFFF;" d="M310.053,160.26l-94.258,54.42c-1.828,1.056-3.311-0.065-3.311-2.503v-9.828
						c0-2.438,1.482-5.271,3.311-6.326l94.258-54.42c1.829-1.056,3.311,0.065,3.311,2.503v9.828
						C313.364,156.372,311.882,159.204,310.053,160.26z"/>
				</g>
				<g>
					<path style="fill:#FFFFFF;" d="M302.479,150.579c0.599-0.346,1.163-0.402,1.586-0.157c0.424,0.245,0.657,0.761,0.657,1.452
						c0,0.692-0.233,1.477-0.657,2.211c-0.424,0.734-0.987,1.329-1.587,1.675c-0.599,0.346-1.162,0.402-1.586,0.157
						c-0.875-0.505-0.875-2.149,0-3.664C301.316,151.52,301.88,150.925,302.479,150.579 M302.479,149.229
						c-0.874,0.504-1.747,1.394-2.414,2.548c-1.333,2.309-1.333,4.805,0,5.574c0.667,0.385,1.54,0.265,2.414-0.239
						c0.874-0.504,1.747-1.394,2.414-2.548c1.333-2.309,1.333-4.805,0-5.574C304.226,148.605,303.353,148.724,302.479,149.229
						L302.479,149.229z"/>
					<g>
						<path style="fill:#FFFFFF;" d="M307.335,158.959c-0.15,0-0.299-0.057-0.413-0.171l-3.248-3.248
							c-0.228-0.228-0.228-0.598,0-0.826c0.228-0.228,0.598-0.228,0.826,0l3.248,3.248c0.228,0.228,0.228,0.598,0,0.826
							C307.634,158.902,307.484,158.959,307.335,158.959z"/>
					</g>
				</g>
			</g>
			<g>
				<path style="fill:#BA68C8;" d="M226.508,224.322c0,4.472-3.139,9.91-7.012,12.145c-3.873,2.236-7.012,0.423-7.012-4.048
					c0-4.472,3.14-9.91,7.012-12.145C223.369,218.038,226.508,219.851,226.508,224.322z"/>
				<g>
					<path style="fill:#BA68C8;" d="M233.198,218.493c-0.346,0-0.682-0.179-0.867-0.5c-0.276-0.479-0.112-1.09,0.366-1.366
						l32.287-18.641c0.477-0.276,1.089-0.113,1.366,0.366c0.276,0.479,0.112,1.09-0.366,1.366l-32.287,18.641
						C233.54,218.45,233.368,218.493,233.198,218.493z"/>
					<path style="fill:#BA68C8;" d="M233.198,224.602c-0.346,0-0.682-0.179-0.867-0.5c-0.276-0.479-0.112-1.09,0.366-1.366
						l19.804-11.434c0.476-0.276,1.089-0.113,1.366,0.366c0.276,0.479,0.112,1.09-0.366,1.366l-19.804,11.434
						C233.54,224.56,233.368,224.602,233.198,224.602z"/>
				</g>
			</g>
			<g>
				<path style="fill:#BA68C8;" d="M253.595,278.159l-36.322,20.971c-2.645,1.527-4.789-0.094-4.789-3.62v-40.23
					c0-3.527,2.144-7.623,4.789-9.15l36.322-20.971c2.645-1.527,4.789,0.094,4.789,3.62v40.23
					C258.384,272.535,256.24,276.632,253.595,278.159z"/>
				<path style="opacity:0.3;fill:#FFFFFF;" d="M253.595,278.159l-36.322,20.971c-2.645,1.527-4.789-0.094-4.789-3.62v-40.23
					c0-3.527,2.144-7.623,4.789-9.15l36.322-20.971c2.645-1.527,4.789,0.094,4.789,3.62v40.23
					C258.384,272.535,256.24,276.632,253.595,278.159z"/>
				<g>
					<polygon style="fill:#BA68C8;" points="255.301,266.13 215.826,288.922 227.488,258.578 236.722,267.047 243.821,256.411 					
						"/>
					<path style="fill:#BA68C8;" d="M241.608,247.201c0,2.296-1.612,5.089-3.601,6.237c-1.989,1.148-3.601,0.217-3.601-2.079
						c0-2.296,1.612-5.089,3.601-6.237C239.996,243.974,241.608,244.905,241.608,247.201z"/>
				</g>
			</g>
			<g>
				<path style="fill:#BA68C8;" d="M308.575,246.624l-36.322,20.971c-2.645,1.527-4.789-0.094-4.789-3.62v-40.23
					c0-3.526,2.144-7.623,4.789-9.15l36.322-20.971c2.645-1.527,4.789,0.094,4.789,3.62v40.23
					C313.364,241,311.22,245.097,308.575,246.624z"/>
				<path style="opacity:0.3;fill:#FFFFFF;" d="M308.575,246.624l-36.322,20.971c-2.645,1.527-4.789-0.094-4.789-3.62v-40.23
					c0-3.526,2.144-7.623,4.789-9.15l36.322-20.971c2.645-1.527,4.789,0.094,4.789,3.62v40.23
					C313.364,241,311.22,245.097,308.575,246.624z"/>
				<g>
					<polygon style="fill:#BA68C8;" points="310.152,233.669 270.676,256.46 282.339,226.117 291.573,234.586 298.672,223.95 					
						"/>
					<path style="fill:#BA68C8;" d="M296.458,214.74c0,2.296-1.612,5.089-3.601,6.237c-1.989,1.148-3.601,0.217-3.601-2.079
						c0-2.296,1.612-5.089,3.601-6.237C294.846,211.513,296.458,212.443,296.458,214.74z"/>
				</g>
			</g>
			<g>
				<path style="fill:#BA68C8;" d="M253.595,390.018l-36.322,20.971c-2.645,1.527-4.789-0.094-4.789-3.62l0,0
					c0-3.527,2.144-7.623,4.789-9.15l36.322-20.971c2.645-1.527,4.789,0.094,4.789,3.62l0,0
					C258.384,384.395,256.24,388.491,253.595,390.018z"/>
				<path style="fill:#BA68C8;" d="M308.575,357.811l-36.322,20.971c-2.645,1.527-4.789-0.094-4.789-3.62l0,0
					c0-3.526,2.144-7.623,4.789-9.15l36.322-20.971c2.645-1.527,4.789,0.094,4.789,3.62l0,0
					C313.364,352.187,311.22,356.284,308.575,357.811z"/>
			</g>
			<g>
				<g>
					<g>
						<path style="fill:#E0E0E0;" d="M310.053,333.817l-94.258,54.42c-1.828,1.056-3.311-0.065-3.311-2.503v-69.473
							c0-2.438,1.482-5.27,3.311-6.326l94.258-54.42c1.829-1.056,3.311,0.065,3.311,2.503v69.473
							C313.364,329.929,311.882,332.761,310.053,333.817z"/>
					</g>
				</g>
				<g>
					<path style="fill:#FFFFFF;" d="M222.192,317.997c-0.346,0-0.682-0.179-0.867-0.5c-0.276-0.479-0.112-1.09,0.366-1.366
						l81.465-47.034c0.477-0.275,1.09-0.113,1.366,0.366c0.276,0.479,0.112,1.09-0.366,1.366l-81.465,47.034
						C222.534,317.954,222.362,317.997,222.192,317.997z"/>
					<path style="fill:#FFFFFF;" d="M222.192,327.462c-0.346,0-0.682-0.179-0.867-0.5c-0.276-0.479-0.112-1.09,0.366-1.366
						l81.465-47.033c0.477-0.276,1.09-0.113,1.366,0.366c0.276,0.478,0.112,1.09-0.366,1.366l-81.465,47.033
						C222.534,327.419,222.362,327.462,222.192,327.462z"/>
					<path style="fill:#FFFFFF;" d="M222.192,336.928c-0.346,0-0.682-0.179-0.867-0.5c-0.276-0.479-0.112-1.09,0.366-1.366
						l81.465-47.034c0.477-0.276,1.09-0.113,1.366,0.366c0.276,0.479,0.112,1.09-0.366,1.366l-81.465,47.034
						C222.534,336.885,222.362,336.928,222.192,336.928z"/>
					<path style="fill:#FFFFFF;" d="M222.192,346.394c-0.346,0-0.682-0.179-0.867-0.5c-0.276-0.479-0.112-1.09,0.366-1.366
						l81.465-47.034c0.477-0.275,1.09-0.114,1.366,0.366c0.276,0.478,0.112,1.09-0.366,1.366l-81.465,47.034
						C222.534,346.351,222.362,346.394,222.192,346.394z"/>
					<path style="fill:#FFFFFF;" d="M222.192,355.858c-0.346,0-0.682-0.179-0.867-0.5c-0.276-0.478-0.112-1.09,0.366-1.366
						l81.465-47.033c0.477-0.276,1.09-0.113,1.366,0.366c0.276,0.479,0.112,1.09-0.366,1.366l-81.465,47.033
						C222.534,355.815,222.362,355.858,222.192,355.858z"/>
					<path style="fill:#FFFFFF;" d="M222.192,365.324c-0.346,0-0.682-0.179-0.867-0.5c-0.276-0.478-0.112-1.09,0.366-1.366
						l81.465-47.034c0.477-0.276,1.09-0.113,1.366,0.366c0.276,0.479,0.112,1.09-0.366,1.366l-81.465,47.034
						C222.534,365.281,222.362,365.324,222.192,365.324z"/>
					<path style="fill:#FFFFFF;" d="M222.192,374.79c-0.346,0-0.682-0.179-0.867-0.5c-0.276-0.479-0.112-1.09,0.366-1.366
						l81.465-47.034c0.477-0.276,1.09-0.113,1.366,0.366c0.276,0.479,0.112,1.09-0.366,1.366l-81.465,47.034
						C222.534,374.747,222.362,374.79,222.192,374.79z"/>
				</g>
			</g>
		</g>
	</g>
</g>
<g id="Character">
	<g>
		<g>
			<path style="fill:#945959;" d="M358.155,246.377l-5.376,6.422l12.585,20.283l-4.512,5.253l-17.703-20.891
				c-2.099-2.477-2.247-6.063-0.359-8.705l6.94-9.711L358.155,246.377z"/>
			<path style="fill:#BA68C8;" d="M373.36,222.95l-4.941-0.455c-3.878-0.357-7.67,1.291-10.055,4.37l-10.871,13.986
				c0,0,1.432,5.32,10.334,8.185l12.859-18.11L373.36,222.95z"/>
			<path style="opacity:0.3;" d="M373.36,222.95l-4.941-0.455c-3.878-0.357-7.67,1.291-10.055,4.37l-10.871,13.986
				c0,0,1.432,5.32,10.334,8.185l12.859-18.11L373.36,222.95z"/>
			<g>
				<g>
					<g>
						<path style="fill:#263238;" d="M370.506,376.895c0,0,1.223,2.756,0.921,6.983c-0.077,1.074-3.607,1.995-4.604,2.225
							c-0.998,0.23-4.144,2.149-5.679,3.223c-1.535,1.074-4.911,3.53-10.206,3.53c-5.295,0-7.751-1.842-7.751-3.684
							c0-1.842,3.453-3.914,6.062-4.297c1.686-0.248,10.129-5.218,11.664-9.055L370.506,376.895z"/>
						<path style="fill:#455A64;" d="M370.506,375.581c0,0,1.223,2.756,0.921,6.983c-0.077,1.074-3.607,1.995-4.604,2.226
							c-0.998,0.23-4.144,2.149-5.679,3.223c-1.535,1.074-4.911,3.53-10.206,3.53c-5.295,0-7.751-1.842-7.751-3.683
							c0-1.842,3.453-3.914,6.062-4.297c1.686-0.248,10.129-5.218,11.664-9.055L370.506,375.581z"/>
						<path style="fill:#FAFAFA;" d="M355.234,388.32c0.074,0.962,0.006,2.519,0.001,2.629c-1.262,0.349-2.68,0.593-4.298,0.593
							c-5.295,0-7.751-1.842-7.751-3.683c0-1.842,3.453-3.914,6.062-4.297C349.249,383.562,354.844,383.248,355.234,388.32z"/>
						<path style="fill:#FAFAFA;" d="M358.074,383.57c0.09,0,0.181-0.022,0.266-0.07c0.263-0.147,0.357-0.479,0.209-0.741
							c-1.201-2.146-3.988-2.408-4.106-2.418c-0.294-0.023-0.563,0.196-0.589,0.496c-0.026,0.299,0.195,0.564,0.495,0.59
							c0.023,0.002,2.333,0.228,3.249,1.864C357.698,383.469,357.883,383.57,358.074,383.57z"/>
						<path style="fill:#FAFAFA;" d="M360.601,381.806c0.09,0,0.181-0.022,0.266-0.07c0.263-0.147,0.357-0.479,0.209-0.741
							c-1.201-2.146-3.988-2.408-4.106-2.418c-0.299-0.029-0.562,0.196-0.589,0.496c-0.026,0.299,0.195,0.564,0.495,0.59
							c0.023,0.002,2.333,0.228,3.249,1.864C360.224,381.706,360.41,381.806,360.601,381.806z"/>
						<path style="fill:#FAFAFA;" d="M362.903,379.665c0.09,0,0.182-0.022,0.266-0.07c0.263-0.147,0.357-0.479,0.209-0.741
							c-1.202-2.146-3.988-2.408-4.106-2.418c-0.302-0.023-0.563,0.196-0.589,0.496c-0.026,0.299,0.195,0.564,0.495,0.59
							c0.023,0.002,2.332,0.228,3.249,1.864C362.527,379.565,362.712,379.665,362.903,379.665z"/>
					</g>
					<path style="fill:#37474F;" d="M379.604,273.176l-4.764,53.829c0,0,0.654,6.446-0.676,21.487
						c-1.33,15.041-2.865,27.933-2.865,27.933s-7.265,2.763-11.562-1.228c0,0-1.217-36.721-1.228-48.967
						c-0.011-13.137,1.228-52.534,1.228-52.534L379.604,273.176z"/>
					<path style="fill:#263238;" d="M376.26,310.953l-2.361-18.421c0,0-7.921-1.083-9.302-4.971
						c-1.72-4.841-0.767-11.051-0.767-11.051l15.53-0.576L376.26,310.953z"/>
				</g>
				<g>
					<g>
						<path style="fill:#263238;" d="M397.393,383.562c0,0,1.65,9.348,1.65,12.568s-1.964,7.384-7.384,7.384
							c-5.42,0-5.185-6.284-4.87-8.876c0.314-2.592,1.65-11.076,1.65-11.076H397.393z"/>
						<path style="fill:#455A64;" d="M397.288,382.564c0,0,1.612,9.132,1.612,12.278c0,3.146-1.919,7.213-7.214,7.213
							c-5.295,0-5.065-6.139-4.758-8.672c0.307-2.532,1.612-10.82,1.612-10.82H397.288z"/>
						<path style="fill:#FAFAFA;" d="M392.322,393.768h0.749c2.053,0,3.965,1.046,5.073,2.775l0.405,0.633
							c-0.758,2.517-2.828,4.881-6.864,4.881c-3.34,0-4.479-2.442-4.79-4.881l0,0C387.901,395.092,390.009,393.768,392.322,393.768z
							"/>
					</g>
					<path style="fill:#37474F;" d="M395.446,272.264l2.456,53.002c0,0,3.274,15.757,2.046,31.924
						c-1.228,16.166-1.432,27.217-1.432,27.217s-7.06,3.684-10.641-0.614l-7.265-60.061l-5.014-32.845c0,0-9.72-0.512-11.664-5.627
						c-1.944-5.116-2.251-11.051-2.251-11.051L395.446,272.264z"/>
					<path style="fill:#FAFAFA;" d="M395.036,391.141c0.193,0,0.38-0.103,0.48-0.285c0.144-0.265,0.046-0.595-0.219-0.74
						c-0.119-0.064-2.947-1.569-5.415,0.021c-0.253,0.163-0.326,0.5-0.163,0.753c0.163,0.253,0.501,0.325,0.753,0.164
						c1.933-1.245,4.281,0.007,4.304,0.021C394.859,391.12,394.948,391.141,395.036,391.141z"/>
					<path style="fill:#FAFAFA;" d="M395.036,388.781c0.193,0,0.38-0.103,0.48-0.285c0.144-0.264,0.046-0.595-0.219-0.74
						c-0.119-0.065-2.947-1.57-5.415,0.021c-0.253,0.163-0.326,0.5-0.163,0.753c0.163,0.253,0.501,0.326,0.753,0.163
						c1.933-1.245,4.281,0.008,4.304,0.021C394.859,388.759,394.948,388.781,395.036,388.781z"/>
					<path style="fill:#FAFAFA;" d="M395.036,386.42c0.193,0,0.38-0.103,0.48-0.285c0.144-0.265,0.046-0.595-0.219-0.74
						c-0.119-0.066-2.947-1.569-5.415,0.021c-0.253,0.163-0.326,0.5-0.163,0.753c0.163,0.252,0.501,0.326,0.753,0.163
						c1.933-1.245,4.281,0.008,4.304,0.021C394.859,386.399,394.948,386.42,395.036,386.42z"/>
				</g>
			</g>
			<path style="fill:#BA68C8;" d="M360.34,234.331l-1.422,42.844c0,0,14.493,10.521,37.585,2.549l0.033-48.108
				c0.003-3.587-2.712-6.592-6.281-6.954l-16.895-1.712C366.544,222.26,360.567,227.484,360.34,234.331z"/>
			<path style="opacity:0.1;" d="M360.34,234.331l-1.422,42.844c0,0,14.493,10.521,37.585,2.549l0.033-48.108
				c0.003-3.587-2.712-6.592-6.281-6.954l-16.895-1.712C366.544,222.26,360.567,227.484,360.34,234.331z"/>
			<path style="fill:#945959;" d="M407.878,244.587l4.297,11.971l28.335,5.832v7.674l-32.507-1.926
				c-2.434-0.137-4.589-1.619-5.587-3.844l-5.881-13.108L407.878,244.587z"/>
			<path style="fill:#BA68C8;" d="M390.254,224.662v5.64c0,4.534,0.878,9.026,2.586,13.227l4.896,12.044
				c0,0,10.938-2.341,12.868-7.661l-7.016-16.358c-1.693-3.947-5.501-6.57-9.792-6.746L390.254,224.662z"/>
			<path style="opacity:0.3;" d="M390.254,224.662v5.64c0,4.534,0.878,9.026,2.586,13.227l4.896,12.044
				c0,0,10.938-2.341,12.868-7.661l-7.016-16.358c-1.693-3.947-5.501-6.57-9.792-6.746L390.254,224.662z"/>
			<g>
				<path style="fill:#263238;" d="M363.802,191.729c0,0-6.239,5.475-0.817,17.679l6.342-16.497L363.802,191.729z"/>
				<g>
					<g>
						<polygon style="fill:#945959;" points="384.376,224.072 373.849,231.935 373.849,206.9 384.376,206.9 						"/>
					</g>
				</g>
				<path style="fill:#703838;" d="M373.849,221.264c3.883-1.499,8.814-3.989,8.814-6.365l1.279-7.999h-10.093V221.264z"/>
				<path style="fill:#945959;" d="M376.028,188.347c-3.828,0-11.966,2.133-12.905,12.148c-0.939,10.015,0.526,18.53,5.136,18.53
					c9.053,0,17.743-1.149,17.815-15.962C386.137,190,379.762,188.347,376.028,188.347z"/>
				<path style="fill:#263238;" d="M384.376,211.839l-1.475-4.526c-0.494,0.418-1.251,0.067-1.251-0.58v-8.069
					c0,0-3.762-1.066-3.364-4.231c0,0-1.923,1.721-9.31,1.721c-7.386,0-9.18-6.258-8.441-9.74c0,0,1.372,1.412,5.276,1.412
					c3.904,0,20.154-4.905,20.576,4.914c0,0,1.372-2.01,3.588,0l-2.849,1.694c0,0,3.377-0.107,2.849,4.853
					c-0.416,3.907-2.045,11.321-2.718,14.293c-0.186,0.822-0.679,1.539-1.378,2.009l-1.502,1.01V211.839z"/>
				<polygon style="fill:#703838;" points="370.275,203.501 370.275,209.408 366.817,208.346 				"/>
				<g>
					<path style="fill:#263238;" d="M376.417,204.523c0,0.664-0.539,1.203-1.203,1.203c-0.664,0-1.203-0.539-1.203-1.203
						c0-0.665,0.539-1.203,1.203-1.203C375.878,203.32,376.417,203.858,376.417,204.523z"/>
					<path style="fill:#263238;" d="M367.412,203.684c0,0.664-0.539,1.203-1.203,1.203c-0.664,0-1.203-0.539-1.203-1.203
						c0-0.665,0.539-1.203,1.203-1.203C366.873,202.481,367.412,203.019,367.412,203.684z"/>
					<path style="fill:#263238;" d="M364.742,201.178l2.353-1.397c0,0-0.903-0.938-1.802-0.375
						C364.395,199.97,364.742,201.178,364.742,201.178z"/>
					<path style="fill:#263238;" d="M377.659,202.047l-2.353-1.397c0,0,0.903-0.938,1.802-0.375
						C378.007,200.839,377.659,202.047,377.659,202.047z"/>
				</g>
				<path style="fill:#703838;" d="M368.648,211.801c0,0,1.91,0.174,3.241-0.868c0,0,0.221,1.707-1.208,2.033
					C369.251,213.294,368.648,211.801,368.648,211.801z"/>
				<path style="fill:#945959;" d="M383.487,205.625c-1.363,2.361-1.013,5.23,0.889,6.213c1.222,0.632,4.83-0.73,6.194-3.091
					c1.363-2.361,0.597-4.389-1.257-5.459C387.459,202.218,384.851,203.264,383.487,205.625z"/>
				<polygon style="fill:#253239;" points="382.799,207.384 386.963,202.868 383.971,201.071 				"/>
			</g>
		</g>
		<g>
			<path style="fill:#FFA8A7;" d="M426.422,346.574h-14.087v3.761c0,2.901,0.392,5.79,1.164,8.587l11.32,40.983
				c0.45,1.628,2.757,1.628,3.207,0l11.32-40.983c0.773-2.797,1.164-5.686,1.164-8.588v-3.76H426.422z"/>
			<g>
				<path style="fill:#37474F;" d="M430.115,390.129c-2.04,1.178-5.346,1.178-7.386,0c-0.31-0.179-0.556-0.379-0.772-0.586
					l2.862,10.361c0.449,1.628,2.757,1.628,3.207,0l2.862-10.362C430.672,389.751,430.425,389.951,430.115,390.129z"/>
			</g>
			<path style="fill:#BA68C8;" d="M412.335,160.436v190.939h0c0,2.081,1.375,4.163,4.126,5.751c5.501,3.176,14.421,3.176,19.923,0
				c2.751-1.588,4.126-3.67,4.126-5.751l0,0V160.436H412.335z"/>
			<g>
				<path style="fill:#E6E6E6;" d="M436.384,192.296c5.501,3.176,5.501,8.326,0,11.502s-14.421,3.176-19.923,0
					c-5.501-3.176-5.501-8.326,0-11.502C421.962,189.12,430.882,189.12,436.384,192.296z"/>
				<rect x="412.335" y="166.781" style="fill:#E6E6E6;" width="28.175" height="31.267"/>
				<path style="fill:#BA68C8;" d="M436.384,192.552c-5.501,3.176-14.421,3.176-19.923,0c-2.751-1.588-4.126-3.67-4.126-5.751h0
					v3.887h0c0,2.081,1.375,4.163,4.126,5.751c5.501,3.176,14.421,3.176,19.923,0c2.751-1.588,4.126-3.67,4.126-5.751v-3.887
					C440.51,188.882,439.134,190.964,436.384,192.552z"/>
				<path style="fill:#BA68C8;" d="M436.384,180.665c-5.501,3.176-14.421,3.176-19.923,0c-2.751-1.588-4.126-3.67-4.126-5.751h0
					v3.887h0c0,2.081,1.375,4.163,4.126,5.751c5.501,3.176,14.421,3.176,19.923,0c2.751-1.588,4.126-3.67,4.126-5.751v-3.887
					C440.51,176.996,439.134,179.077,436.384,180.665z"/>
				<path style="fill:#F28F8F;" d="M436.384,161.029c5.501,3.176,5.501,8.326,0,11.503c-5.501,3.176-14.421,3.176-19.923,0
					c-5.501-3.176-5.501-8.326,0-11.502C421.962,157.853,430.882,157.853,436.384,161.029z"/>
				<rect x="412.335" y="142.874" style="fill:#F28F8F;" width="28.175" height="23.907"/>
				<path style="fill:#FFA8A7;" d="M436.384,137.123c5.501,3.176,5.501,8.326,0,11.502c-5.501,3.176-14.421,3.176-19.923,0
					c-5.501-3.176-5.501-8.326,0-11.503C421.962,133.946,430.882,133.946,436.384,137.123z"/>
			</g>
		</g>
		<path style="fill:#945959;" d="M440.519,258.232c0,0-2.078,1.457-5.162,0c-4.35-2.054-2.121,12.204,5.162,10.271
			c7.283-1.933,4.987-12.929,0-12.929L440.519,258.232z"/>
	</g>
</g>
</svg>
